{
    "asset" : {
        "generator" : "Khronos glTF Blender I/O v1.4.40",
        "version" : "2.0"
    },
    "scene" : 0,
    "scenes" : [
        {
            "name" : "Scene",
            "nodes" : [
                1,
                3,
                5
            ]
        }
    ],
    "nodes" : [
        {
            "mesh" : 0,
            "name" : "mesh_node",
            "scale" : [
                1.5,
                1.5,
                1.5
            ],
            "translation" : [
                0,
                -0.6919625401496887,
                0
            ]
        },
        {
            "children" : [
                0
            ],
            "name" : "tree3",
            "rotation" : [
                0.7071068286895752,
                0,
                0,
                0.7071067094802856
            ],
            "scale" : [
                0.7311350107192993,
                0.7316399812698364,
                0.7322869896888733
            ],
            "translation" : [
                4.394909858703613,
                0,
                0
            ]
        },
        {
            "mesh" : 1,
            "name" : "mesh_node.001",
            "scale" : [
                1.399999976158142,
                1.399999976158142,
                1.399999976158142
            ]
        },
        {
            "children" : [
                2
            ],
            "name" : "tree1",
            "rotation" : [
                0.7071068286895752,
                0,
                0,
                0.7071067094802856
            ],
            "translation" : [
                -4.680689811706543,
                0,
                -0.17560699582099915
            ]
        },
        {
            "mesh" : 2,
            "name" : "mesh_node.002"
        },
        {
            "children" : [
                4
            ],
            "name" : "tree2",
            "rotation" : [
                0.7071068286895752,
                0,
                0,
                0.7071067094802856
            ],
            "scale" : [
                0.800000011920929,
                0.800000011920929,
                0.800000011920929
            ]
        }
    ],
    "materials" : [
        {
            "alphaMode" : "BLEND",
            "name" : "ID_15692138db-142d-f346-968e-81d092c9ba4d_16",
            "pbrMetallicRoughness" : {
                "baseColorTexture" : {
                    "index" : 0,
                    "texCoord" : 0
                },
                "metallicFactor" : 0.0004999999655410647,
                "roughnessFactor" : 0.5
            }
        },
        {
            "doubleSided" : true,
            "name" : "ID_15d23766cd-93d2-b142-a7b7-b294f244b952_16",
            "pbrMetallicRoughness" : {
                "baseColorTexture" : {
                    "index" : 1,
                    "texCoord" : 0
                },
                "metallicFactor" : 0.0004999999655410647,
                "roughnessFactor" : 0.5
            }
        },
        {
            "doubleSided" : true,
            "name" : "ID_1564d2987b-af8a-ae4c-8d80-7e6c8a235507_16",
            "pbrMetallicRoughness" : {
                "baseColorFactor" : [
                    0.4390000104904175,
                    0.6004170179367065,
                    0.3450329899787903,
                    1
                ],
                "metallicFactor" : 0.0004999999655410647,
                "roughnessFactor" : 0.5
            }
        }
    ],
    "meshes" : [
        {
            "name" : "IDmerged__15762fbba4-a98b-8b42-95be-ee4a66e80807_16.mesh.lod",
            "primitives" : [
                {
                    "attributes" : {
                        "POSITION" : 0,
                        "NORMAL" : 1,
                        "TEXCOORD_0" : 2
                    },
                    "indices" : 3,
                    "material" : 0
                },
                {
                    "attributes" : {
                        "POSITION" : 4,
                        "NORMAL" : 5,
                        "TEXCOORD_0" : 6
                    },
                    "indices" : 7,
                    "material" : 1
                }
            ]
        },
        {
            "name" : "IDTree_1016__15f7799a5c-e535-7845-8faa-62235f71e580_16.mesh.lod",
            "primitives" : [
                {
                    "attributes" : {
                        "POSITION" : 8,
                        "NORMAL" : 9,
                        "TEXCOORD_0" : 10
                    },
                    "indices" : 11,
                    "material" : 2
                },
                {
                    "attributes" : {
                        "POSITION" : 12,
                        "NORMAL" : 13,
                        "TEXCOORD_0" : 14
                    },
                    "indices" : 15,
                    "material" : 0
                },
                {
                    "attributes" : {
                        "POSITION" : 16,
                        "NORMAL" : 17,
                        "TEXCOORD_0" : 18
                    },
                    "indices" : 19,
                    "material" : 1
                }
            ]
        },
        {
            "name" : "IDmerged__15a68f9aa2-48c4-5b40-9753-b68e993b64d8_16.mesh.lod",
            "primitives" : [
                {
                    "attributes" : {
                        "POSITION" : 20,
                        "NORMAL" : 21,
                        "TEXCOORD_0" : 22
                    },
                    "indices" : 23,
                    "material" : 0
                },
                {
                    "attributes" : {
                        "POSITION" : 24,
                        "NORMAL" : 25,
                        "TEXCOORD_0" : 26
                    },
                    "indices" : 27,
                    "material" : 2
                },
                {
                    "attributes" : {
                        "POSITION" : 28,
                        "NORMAL" : 29,
                        "TEXCOORD_0" : 30
                    },
                    "indices" : 31,
                    "material" : 1
                }
            ]
        }
    ],
    "textures" : [
        {
            "sampler" : 0,
            "source" : 0
        },
        {
            "sampler" : 0,
            "source" : 1
        }
    ],
    "images" : [
        {
            "bufferView" : 4,
            "mimeType" : "image/png",
            "name" : "Branch9__11c2dfeb_acfb_dd4b_8a1f_ef21016bd195_"
        },
        {
            "bufferView" : 9,
            "mimeType" : "image/png",
            "name" : "Bark7__7724a078_2cb1_604d_8056_657f7ee53129_"
        }
    ],
    "accessors" : [
        {
            "bufferView" : 0,
            "componentType" : 5126,
            "count" : 858,
            "max" : [
                2.6397299766540527,
                2.6174099445343018,
                -2.766629934310913
            ],
            "min" : [
                -2.6397299766540527,
                -2.6174099445343018,
                -6.500179767608643
            ],
            "type" : "VEC3"
        },
        {
            "bufferView" : 1,
            "componentType" : 5126,
            "count" : 858,
            "type" : "VEC3"
        },
        {
            "bufferView" : 2,
            "componentType" : 5126,
            "count" : 858,
            "type" : "VEC2"
        },
        {
            "bufferView" : 3,
            "componentType" : 5123,
            "count" : 2952,
            "type" : "SCALAR"
        },
        {
            "bufferView" : 5,
            "componentType" : 5126,
            "count" : 497,
            "max" : [
                0.2838129997253418,
                0.6419510245323181,
                0
            ],
            "min" : [
                -0.3775019943714142,
                -0.04537529870867729,
                -4.653130054473877
            ],
            "type" : "VEC3"
        },
        {
            "bufferView" : 6,
            "componentType" : 5126,
            "count" : 497,
            "type" : "VEC3"
        },
        {
            "bufferView" : 7,
            "componentType" : 5126,
            "count" : 497,
            "type" : "VEC2"
        },
        {
            "bufferView" : 8,
            "componentType" : 5123,
            "count" : 2322,
            "type" : "SCALAR"
        },
        {
            "bufferView" : 10,
            "componentType" : 5126,
            "count" : 1159,
            "max" : [
                1.4122099876403809,
                1.6344599723815918,
                -3.3694698810577393
            ],
            "min" : [
                -1.6092900037765503,
                -1.7284799814224243,
                -5.545799732208252
            ],
            "type" : "VEC3"
        },
        {
            "bufferView" : 11,
            "componentType" : 5126,
            "count" : 1159,
            "type" : "VEC3"
        },
        {
            "bufferView" : 12,
            "componentType" : 5126,
            "count" : 1159,
            "type" : "VEC2"
        },
        {
            "bufferView" : 13,
            "componentType" : 5123,
            "count" : 5130,
            "type" : "SCALAR"
        },
        {
            "bufferView" : 14,
            "componentType" : 5126,
            "count" : 598,
            "max" : [
                1.644219994544983,
                1.7922199964523315,
                -3.3521199226379395
            ],
            "min" : [
                -1.644219994544983,
                -1.7922199964523315,
                -5.661989688873291
            ],
            "type" : "VEC3"
        },
        {
            "bufferView" : 15,
            "componentType" : 5126,
            "count" : 598,
            "type" : "VEC3"
        },
        {
            "bufferView" : 16,
            "componentType" : 5126,
            "count" : 598,
            "type" : "VEC2"
        },
        {
            "bufferView" : 17,
            "componentType" : 5123,
            "count" : 1824,
            "type" : "SCALAR"
        },
        {
            "bufferView" : 18,
            "componentType" : 5126,
            "count" : 356,
            "max" : [
                0.008642789907753468,
                0.15704700350761414,
                -5.8207699993317874e-08
            ],
            "min" : [
                -0.42561501264572144,
                -0.26021599769592285,
                -4.063339710235596
            ],
            "type" : "VEC3"
        },
        {
            "bufferView" : 19,
            "componentType" : 5126,
            "count" : 356,
            "type" : "VEC3"
        },
        {
            "bufferView" : 20,
            "componentType" : 5126,
            "count" : 356,
            "type" : "VEC2"
        },
        {
            "bufferView" : 21,
            "componentType" : 5123,
            "count" : 1890,
            "type" : "SCALAR"
        },
        {
            "bufferView" : 22,
            "componentType" : 5126,
            "count" : 912,
            "max" : [
                2.5403900146484375,
                2.628229856491089,
                -5.311349868774414
            ],
            "min" : [
                -2.5403900146484375,
                -2.628229856491089,
                -9.953269958496094
            ],
            "type" : "VEC3"
        },
        {
            "bufferView" : 23,
            "componentType" : 5126,
            "count" : 912,
            "type" : "VEC3"
        },
        {
            "bufferView" : 24,
            "componentType" : 5126,
            "count" : 912,
            "type" : "VEC2"
        },
        {
            "bufferView" : 25,
            "componentType" : 5123,
            "count" : 2616,
            "type" : "SCALAR"
        },
        {
            "bufferView" : 26,
            "componentType" : 5126,
            "count" : 1729,
            "max" : [
                2.4983599185943604,
                2.5756499767303467,
                -5.674149990081787
            ],
            "min" : [
                -2.364449977874756,
                -2.527359962463379,
                -9.767370223999023
            ],
            "type" : "VEC3"
        },
        {
            "bufferView" : 27,
            "componentType" : 5126,
            "count" : 1729,
            "type" : "VEC3"
        },
        {
            "bufferView" : 28,
            "componentType" : 5126,
            "count" : 1729,
            "type" : "VEC2"
        },
        {
            "bufferView" : 29,
            "componentType" : 5123,
            "count" : 7008,
            "type" : "SCALAR"
        },
        {
            "bufferView" : 30,
            "componentType" : 5126,
            "count" : 433,
            "max" : [
                0.1523669958114624,
                0.6253470182418823,
                0
            ],
            "min" : [
                -0.33357200026512146,
                -0.13672000169754028,
                -7.2870001792907715
            ],
            "type" : "VEC3"
        },
        {
            "bufferView" : 31,
            "componentType" : 5126,
            "count" : 433,
            "type" : "VEC3"
        },
        {
            "bufferView" : 32,
            "componentType" : 5126,
            "count" : 433,
            "type" : "VEC2"
        },
        {
            "bufferView" : 33,
            "componentType" : 5123,
            "count" : 2334,
            "type" : "SCALAR"
        }
    ],
    "bufferViews" : [
        {
            "buffer" : 0,
            "byteLength" : 10296,
            "byteOffset" : 0
        },
        {
            "buffer" : 0,
            "byteLength" : 10296,
            "byteOffset" : 10296
        },
        {
            "buffer" : 0,
            "byteLength" : 6864,
            "byteOffset" : 20592
        },
        {
            "buffer" : 0,
            "byteLength" : 5904,
            "byteOffset" : 27456
        },
        {
            "buffer" : 0,
            "byteLength" : 99870,
            "byteOffset" : 33360
        },
        {
            "buffer" : 0,
            "byteLength" : 5964,
            "byteOffset" : 133232
        },
        {
            "buffer" : 0,
            "byteLength" : 5964,
            "byteOffset" : 139196
        },
        {
            "buffer" : 0,
            "byteLength" : 3976,
            "byteOffset" : 145160
        },
        {
            "buffer" : 0,
            "byteLength" : 4644,
            "byteOffset" : 149136
        },
        {
            "buffer" : 0,
            "byteLength" : 182006,
            "byteOffset" : 153780
        },
        {
            "buffer" : 0,
            "byteLength" : 13908,
            "byteOffset" : 335788
        },
        {
            "buffer" : 0,
            "byteLength" : 13908,
            "byteOffset" : 349696
        },
        {
            "buffer" : 0,
            "byteLength" : 9272,
            "byteOffset" : 363604
        },
        {
            "buffer" : 0,
            "byteLength" : 10260,
            "byteOffset" : 372876
        },
        {
            "buffer" : 0,
            "byteLength" : 7176,
            "byteOffset" : 383136
        },
        {
            "buffer" : 0,
            "byteLength" : 7176,
            "byteOffset" : 390312
        },
        {
            "buffer" : 0,
            "byteLength" : 4784,
            "byteOffset" : 397488
        },
        {
            "buffer" : 0,
            "byteLength" : 3648,
            "byteOffset" : 402272
        },
        {
            "buffer" : 0,
            "byteLength" : 4272,
            "byteOffset" : 405920
        },
        {
            "buffer" : 0,
            "byteLength" : 4272,
            "byteOffset" : 410192
        },
        {
            "buffer" : 0,
            "byteLength" : 2848,
            "byteOffset" : 414464
        },
        {
            "buffer" : 0,
            "byteLength" : 3780,
            "byteOffset" : 417312
        },
        {
            "buffer" : 0,
            "byteLength" : 10944,
            "byteOffset" : 421092
        },
        {
            "buffer" : 0,
            "byteLength" : 10944,
            "byteOffset" : 432036
        },
        {
            "buffer" : 0,
            "byteLength" : 7296,
            "byteOffset" : 442980
        },
        {
            "buffer" : 0,
            "byteLength" : 5232,
            "byteOffset" : 450276
        },
        {
            "buffer" : 0,
            "byteLength" : 20748,
            "byteOffset" : 455508
        },
        {
            "buffer" : 0,
            "byteLength" : 20748,
            "byteOffset" : 476256
        },
        {
            "buffer" : 0,
            "byteLength" : 13832,
            "byteOffset" : 497004
        },
        {
            "buffer" : 0,
            "byteLength" : 14016,
            "byteOffset" : 510836
        },
        {
            "buffer" : 0,
            "byteLength" : 5196,
            "byteOffset" : 524852
        },
        {
            "buffer" : 0,
            "byteLength" : 5196,
            "byteOffset" : 530048
        },
        {
            "buffer" : 0,
            "byteLength" : 3464,
            "byteOffset" : 535244
        },
        {
            "buffer" : 0,
            "byteLength" : 4668,
            "byteOffset" : 538708
        }
    ],
    "samplers" : [
        {
            "magFilter" : 9729,
            "minFilter" : 9986
        }
    ],
    "buffers" : [
        {
            "byteLength" : 543376,
            "uri" : "data:application/octet-stream;base64,"
        }
    ]
}
